<mxfile host="app.diagrams.net" modified="2022-01-16T21:38:59.747Z" agent="5.0 (Windows NT 10.0; Win64; x64) AppleWebKit/537.36 (KHTML, like Gecko) Chrome/96.0.4664.110 Safari/537.36 OPR/82.0.4227.43" etag="fJG1RnXYYbxRjx1qls9N" version="16.2.7" type="github">
  <diagram id="prtHgNgQTEPvFCAcTncT" name="Page-1">
    <mxGraphModel dx="797" dy="464" grid="1" gridSize="10" guides="1" tooltips="1" connect="1" arrows="1" fold="1" page="1" pageScale="1" pageWidth="827" pageHeight="1169" math="0" shadow="0">
      <root>
        <mxCell id="0" />
        <mxCell id="1" parent="0" />
        <mxCell id="_xO7ABdCka5yZAMZqQVM-1" value="&lt;i style=&quot;font-weight: bold&quot;&gt;Повар&lt;br&gt;&lt;br&gt;-&lt;/i&gt;Готовка еды&lt;br&gt;-Поддержание кухни в рабочем виде&lt;br&gt;-Выдача блюд" style="ellipse;whiteSpace=wrap;html=1;" vertex="1" parent="1">
          <mxGeometry x="145" y="120" width="220" height="110" as="geometry" />
        </mxCell>
        <mxCell id="_xO7ABdCka5yZAMZqQVM-2" value="&lt;i&gt;Директор&lt;br&gt;&lt;/i&gt;&lt;br&gt;&lt;span style=&quot;font-weight: normal&quot;&gt;-Бух. учет&lt;br&gt;-Управление персоналом&lt;br&gt;-СММ&lt;/span&gt;" style="ellipse;whiteSpace=wrap;html=1;fontStyle=1" vertex="1" parent="1">
          <mxGeometry x="480" y="110" width="160" height="150" as="geometry" />
        </mxCell>
        <mxCell id="_xO7ABdCka5yZAMZqQVM-3" value="&lt;i style=&quot;font-weight: bold&quot;&gt;Уборщик&lt;/i&gt;&lt;br&gt;&lt;br&gt;-Мытье посуды&lt;br&gt;-Уборка помещения" style="ellipse;whiteSpace=wrap;html=1;" vertex="1" parent="1">
          <mxGeometry x="145" y="300" width="190" height="150" as="geometry" />
        </mxCell>
        <mxCell id="_xO7ABdCka5yZAMZqQVM-4" value="&lt;i&gt;Администратор&lt;/i&gt;&lt;br&gt;&lt;br&gt;&lt;div style=&quot;text-align: left&quot;&gt;&lt;span&gt;&lt;i&gt;-&lt;/i&gt;&lt;span style=&quot;font-weight: normal&quot;&gt;Касса&lt;/span&gt;&lt;/span&gt;&lt;/div&gt;&lt;div style=&quot;text-align: left&quot;&gt;&lt;span&gt;&lt;span style=&quot;font-weight: normal&quot;&gt;-Бар&lt;/span&gt;&lt;/span&gt;&lt;/div&gt;&lt;div style=&quot;text-align: left&quot;&gt;&lt;span&gt;&lt;span style=&quot;font-weight: normal&quot;&gt;-СММ&lt;/span&gt;&lt;/span&gt;&lt;/div&gt;" style="ellipse;whiteSpace=wrap;html=1;fontFamily=Times New Roman;fontStyle=1" vertex="1" parent="1">
          <mxGeometry x="475" y="290" width="170" height="180" as="geometry" />
        </mxCell>
        <mxCell id="_xO7ABdCka5yZAMZqQVM-5" value="" style="endArrow=classic;html=1;rounded=0;fontFamily=Times New Roman;fontSize=8;exitX=0.911;exitY=0.167;exitDx=0;exitDy=0;exitPerimeter=0;" edge="1" parent="1" source="_xO7ABdCka5yZAMZqQVM-3" target="_xO7ABdCka5yZAMZqQVM-2">
          <mxGeometry width="50" height="50" relative="1" as="geometry">
            <mxPoint x="340" y="310" as="sourcePoint" />
            <mxPoint x="430" y="210" as="targetPoint" />
          </mxGeometry>
        </mxCell>
        <mxCell id="_xO7ABdCka5yZAMZqQVM-6" value="" style="endArrow=classic;html=1;rounded=0;fontFamily=Times New Roman;fontSize=8;" edge="1" parent="1" source="_xO7ABdCka5yZAMZqQVM-3" target="_xO7ABdCka5yZAMZqQVM-1">
          <mxGeometry width="50" height="50" relative="1" as="geometry">
            <mxPoint x="380" y="260" as="sourcePoint" />
            <mxPoint x="430" y="210" as="targetPoint" />
          </mxGeometry>
        </mxCell>
        <mxCell id="_xO7ABdCka5yZAMZqQVM-7" value="" style="endArrow=classic;html=1;rounded=0;fontFamily=Times New Roman;fontSize=8;" edge="1" parent="1">
          <mxGeometry width="50" height="50" relative="1" as="geometry">
            <mxPoint x="340" y="370" as="sourcePoint" />
            <mxPoint x="470" y="370" as="targetPoint" />
          </mxGeometry>
        </mxCell>
        <mxCell id="_xO7ABdCka5yZAMZqQVM-8" value="" style="endArrow=classic;html=1;rounded=0;fontFamily=Times New Roman;fontSize=8;exitX=0.5;exitY=0;exitDx=0;exitDy=0;entryX=0.5;entryY=1;entryDx=0;entryDy=0;" edge="1" parent="1" source="_xO7ABdCka5yZAMZqQVM-4" target="_xO7ABdCka5yZAMZqQVM-2">
          <mxGeometry width="50" height="50" relative="1" as="geometry">
            <mxPoint x="380" y="260" as="sourcePoint" />
            <mxPoint x="430" y="210" as="targetPoint" />
          </mxGeometry>
        </mxCell>
        <mxCell id="_xO7ABdCka5yZAMZqQVM-9" value="" style="endArrow=classic;html=1;rounded=0;fontFamily=Times New Roman;fontSize=8;entryX=0;entryY=0.5;entryDx=0;entryDy=0;" edge="1" parent="1" target="_xO7ABdCka5yZAMZqQVM-2">
          <mxGeometry width="50" height="50" relative="1" as="geometry">
            <mxPoint x="370" y="180" as="sourcePoint" />
            <mxPoint x="430" y="210" as="targetPoint" />
          </mxGeometry>
        </mxCell>
        <mxCell id="_xO7ABdCka5yZAMZqQVM-10" value="" style="endArrow=classic;html=1;rounded=0;fontFamily=Times New Roman;fontSize=8;entryX=0;entryY=0;entryDx=0;entryDy=0;" edge="1" parent="1" source="_xO7ABdCka5yZAMZqQVM-1" target="_xO7ABdCka5yZAMZqQVM-4">
          <mxGeometry width="50" height="50" relative="1" as="geometry">
            <mxPoint x="380" y="260" as="sourcePoint" />
            <mxPoint x="430" y="210" as="targetPoint" />
          </mxGeometry>
        </mxCell>
      </root>
    </mxGraphModel>
  </diagram>
</mxfile>
